{"title":"El.Cid.1961.1080p.BluRay.DTS.x264-HDC","uid":6407445,"size":14561811507,"categoryP":"video","categoryS":"hd___movies","magnet":"?xt=urn:btih:b3418d5d9aa3209b71760afa5db49e98a7aaa82d&amp;dn=El.Cid.1961.1080p.BluRay.DTS.x264-HDC&amp;tr=udp%3A%2F%2Ftracker.openbittorrent.com%3A80&amp;tr=udp%3A%2F%2Fopen.demonii.com%3A1337&amp;tr=udp%3A%2F%2Ftracker.coppersurfer.tk%3A6969&amp;tr=udp%3A%2F%2Fexodus.desync.com%3A6969","seeders":1,"leechers":3,"uploader":"Wind8Water","files":-1,"time":1305858464,"description":"In 11th-century Spain, the Christian kingdoms of Castile, Leon, and Aragon face\nthe constant threat of the warring Moors and their determination to spread the\nIslamic culture throughout all of Europe. Into this arena of violence rides\nRodrigo Diaz de Vivar, whose courage, wisdom, and spiritual strength earn him\nthe sobriquet El Cid, or &quot;The Lord.&quot;...\n\nAmongst the many other plus points are the exciting action scenes, in particular\nthe combat for Caloharra, which, although the viewer is never in any doubt that\nRodrigo will be victorious, is superbly performed and totally convincing. Also,\nMiklos Rosza's impressive score ranks amongst his very best.\n\nNotes\nMusic includes &quot;Love Theme&quot;, music by Miklos Rozsa, words by Paul Francis Webster.\n\nTagline\nThe Greatest Romance and Adventure in a Thousand Years! \n\n &lt;a href=&quot;\nhttp://en.wikipedia.org/wiki/El_Cid_%28film%29&quot; rel=&quot;nofollow&quot; target=&quot;_NEW&quot;&gt;\nhttp://en.wikipedia.org/wiki/El_Cid_%28film%29&lt;/a&gt;\n &lt;a href=&quot;\nhttp://www.imdb.com/title/tt0054847/&quot; rel=&quot;nofollow&quot; target=&quot;_NEW&quot;&gt;\nhttp://www.imdb.com/title/tt0054847/&lt;/a&gt;\n\n\nR E L E A S E    I N F O\n\nRelease Date..: 06.11.2009\nRuntime.......: 03h:08m:02s\nVideo Codec...: x264 [LVL4.1][DXVA]\nFramerate.....: 23.976 fps\nBitrate.......: 8.745 kbps\nResolution....: 1920x816 [AR 2.35:1]\nAudio.........: English 5.1 DTS @ 1.536 kbps (core of DTS-MA)\nChapters......: YES like BluRay\nSource........: BluRay AVC ~ 19.530 Mbps\nEncoder  .....: iwok\nIMDb Rating...: 7.2/10 (5.051 votes)\nGenre.........: Action | Biography | Drama\n\nSubtitles (not embedded): English, Danish, Dutch, English for hearing impaired,\nFrench, Greek, Croatian, Hungarian, Indonesian (machine translated), Polish,\nPortuguese, Romanian, Russian, Spanish, Serbian (Cyrillic)\n\nExtra: Poster artwork\n\n\nScreenshots &amp; Sample included\n\n\nFor another Charlton Heston great movie:\n &lt;a href=&quot;\nhttp://thepiratebay.se/torrent/6343801/The.Ten.Commandments.1956.1080p.BluRay.x264-KaKa&quot; rel=&quot;nofollow&quot; target=&quot;_NEW&quot;&gt;\nhttp://thepiratebay.se/torrent/6343801/The.Ten.Commandments.1956.1080p.BluRay.x264-KaKa&lt;/a&gt;\n\nFor other rare torrents please visit:\n &lt;a href=&quot;\nhttp://thepiratebay.se/user/Wind8Water/&quot; rel=&quot;nofollow&quot; target=&quot;_NEW&quot;&gt;\nhttp://thepiratebay.se/user/Wind8Water/&lt;/a&gt;\n\n\nMedia Info\n\nFormat                            : Matroska\n File size                        : 13.5 GiB\n Duration                         : 3h 8mn\n Overall bit rate                 : 10.3 Mbps\n Movie name                       : El Cid 1961 - HDC\n Encoded date                     : UTC 2009-11-06 07:15:35\n Writing application              : mkvmerge v2.9.8 ('C'est le bon')\n                                    built on Aug 13 2009 12:49:06\n Writing library                  : libebml v0.7.7 + libmatroska v0.8.1\n\nVideo\n Format                           : AVC\n Format profile                   : &lt;a class=&quot;__cf_email__&quot; href=&quot;/cdn-cgi/l/email-protection&quot; data-cfemail=&quot;c48cada3ac8488f0eaf5&quot;&gt;[email&amp;#160;protected]&lt;/a&gt;&lt;script cf-hash='f9e31' type=&quot;text/javascript&quot;&gt;\n/* &lt;![CDATA[ */!function(){try{var t=&quot;currentScript&quot;in document?document.currentScript:function(){for(var t=document.getElementsByTagName(&quot;script&quot;),e=t.length;e--;)if(t[e].getAttribute(&quot;cf-hash&quot;))return t[e]}();if(t&amp;&amp;t.previousSibling){var e,r,n,i,c=t.previousSibling,a=c.getAttribute(&quot;data-cfemail&quot;);if(a){for(e=&quot;&quot;,r=parseInt(a.substr(0,2),16),n=2;a.length-n;n+=2)i=parseInt(a.substr(n,2),16)^r,e+=String.fromCharCode(i);e=document.createTextNode(e),c.parentNode.replaceChild(e,c)}}}catch(u){}}();/* ]]&gt; */&lt;/script&gt;\n Format settings, CABAC           : Yes\n Format settings, ReFrames        : 5 frames\n Bit rate                         : 8 745 Kbps\n Width                            : 1 920 pixels\n Height                           : 816 pixels\n Display aspect ratio             : 2.35:1\n Frame rate                       : 23.976 fps\n Color space                      : YUV\n Chroma subsampling               : 4:2:0\n Bit depth                        : 8 bits\n Scan type                        : Progressive\n Bits/(Pixel*Frame)               : 0.233\n Stream size                      : 11.2 GiB (83%)\n Writing library                  : x264 core 75 r1251M e553a4c\n Language                         : English\n\nAudio\n Format                           : DTS\n Bit rate mode                    : Constant\n Bit rate                         : 1 510 Kbps\n Channel(s)                       : 6 channels\n Channel positions                : Front: L C R, Side: L R, LFE\n Sampling rate                    : 48.0 KHz\n Bit depth                        : 24 bits\n Compression mode                 : Lossy\n Stream size                      : 1.98 GiB (15%)\n Title                            : English DTS 5.1 @ 1.536 kbps (core of DTS-MA)\n Language                         : English\n\n\n\n                                Enjoy &amp; Please Seed  !\t\t","torrent":{"xt":"urn:btih:b3418d5d9aa3209b71760afa5db49e98a7aaa82d","amp;dn":"El.Cid.1961.1080p.BluRay.DTS.x264-HDC","amp;tr":["udp%3A%2F%2Ftracker.openbittorrent.com%3A80","udp%3A%2F%2Fopen.demonii.com%3A1337","udp%3A%2F%2Ftracker.coppersurfer.tk%3A6969","udp%3A%2F%2Fexodus.desync.com%3A6969"],"infoHash":"b3418d5d9aa3209b71760afa5db49e98a7aaa82d","infoHashBuffer":{"type":"Buffer","data":[179,65,141,93,154,163,32,155,113,118,10,250,93,180,158,152,167,170,168,45]},"announce":[],"urlList":[]}}